<?xml version="1.0" standalone="no"?>
<!DOCTYPE svg PUBLIC "-//W3C//DTD SVG 20010904//EN"
 "http://www.w3.org/TR/2001/REC-SVG-20010904/DTD/svg10.dtd">
<svg version="1.0" xmlns="http://www.w3.org/2000/svg"
 width="1612.000000pt" height="1458.000000pt" viewBox="0 0 1612.000000 1458.000000"
 preserveAspectRatio="xMidYMid meet">

<g transform="translate(0.000000,1458.000000) scale(0.100000,-0.100000)"
fill="#000000" stroke="none">
<path d="M9964 10689 c-291 -26 -582 -131 -811 -292 -101 -71 -307 -272 -373
-365 -125 -173 -244 -438 -305 -677 -149 -581 -216 -1607 -201 -3070 13 -1333
73 -1996 222 -2450 130 -397 364 -721 665 -921 226 -150 430 -212 739 -221
206 -6 318 6 475 52 319 92 584 332 671 607 l18 58 68 -141 c37 -78 88 -169
112 -203 151 -211 369 -306 708 -306 95 0 233 16 260 31 16 9 18 28 18 197 l0
187 -87 0 c-79 0 -93 3 -136 28 -108 64 -179 242 -218 547 -16 129 -23 1072
-10 1420 25 664 78 1112 149 1250 l28 55 129 5 130 5 3 188 2 187 -825 0 -825
0 0 -190 0 -190 33 0 c51 0 148 -28 190 -56 75 -49 124 -145 158 -309 30 -146
39 -277 50 -700 15 -630 -10 -966 -102 -1342 -89 -365 -220 -627 -403 -808
-142 -141 -277 -194 -454 -180 -309 24 -556 204 -714 520 -164 327 -190 737
-192 3005 -1 1691 23 2389 94 2805 64 374 277 666 589 807 205 93 540 115 799
52 99 -23 241 -95 303 -152 l54 -49 -50 -26 c-121 -61 -200 -153 -241 -280
-22 -69 -27 -105 -31 -227 -6 -175 9 -257 66 -377 88 -184 222 -263 440 -263
189 1 317 67 413 214 133 206 139 595 13 881 -89 202 -289 401 -515 515 -297
150 -702 215 -1106 179z"/>
<path d="M6373 10593 l-143 -4 0 -122 c0 -67 3 -152 6 -188 l7 -67 136 -4
c162 -4 188 -15 233 -95 34 -61 41 -118 57 -472 11 -239 38 -2118 30 -2125 -2
-2 -381 -6 -843 -8 l-838 -4 5 1050 c8 1360 14 1479 83 1579 37 55 74 67 230
74 l134 6 0 189 0 188 -830 0 -830 0 0 -194 0 -194 129 -3 c146 -4 167 -13
207 -84 46 -79 58 -236 76 -988 18 -716 17 -4642 0 -5207 -16 -521 -23 -605
-52 -665 -33 -68 -61 -79 -212 -83 l-128 -4 0 -192 0 -193 201 -7 c110 -4 483
-4 830 0 l629 7 0 194 0 193 -122 1 c-162 1 -203 12 -244 66 -18 23 -37 64
-43 91 -24 114 -46 1205 -58 2895 l-6 907 841 0 842 0 0 -1017 c-1 -1096 -15
-2473 -29 -2669 -7 -105 -12 -128 -37 -175 -42 -78 -69 -89 -243 -96 l-141 -6
0 -81 c0 -45 3 -132 7 -194 l6 -112 824 0 823 0 0 199 0 199 -127 4 c-77 3
-139 9 -155 17 -49 24 -79 99 -88 219 -37 458 -54 1702 -55 3912 0 2388 6
2649 69 2786 35 76 62 87 214 92 l122 4 0 194 0 194 -687 -2 c-379 -1 -752 -4
-830 -5z"/>
</g>
</svg>
