<?xml version="1.0" standalone="no"?>
<!DOCTYPE svg PUBLIC "-//W3C//DTD SVG 20010904//EN"
 "http://www.w3.org/TR/2001/REC-SVG-20010904/DTD/svg10.dtd">
<svg version="1.0" xmlns="http://www.w3.org/2000/svg"
 width="88.000000pt" height="85.000000pt" viewBox="0 0 88.000000 85.000000"
 preserveAspectRatio="xMidYMid meet">

<g transform="translate(0.000000,85.000000) scale(0.100000,-0.100000)"
fill="#000000" stroke="none">
<path d="M505 606 c-17 -7 -37 -26 -44 -42 -16 -34 -27 -212 -17 -278 13 -86
77 -130 133 -91 18 13 22 13 33 0 16 -19 50 -19 50 0 0 8 -4 15 -10 15 -6 0
-10 37 -10 90 0 53 4 90 10 90 6 0 10 5 10 10 0 6 -20 10 -45 10 -42 0 -58
-11 -35 -25 16 -10 12 -122 -5 -155 -17 -33 -32 -37 -61 -16 -17 13 -19 29
-22 168 -3 182 3 201 63 206 34 3 37 1 26 -12 -19 -22 -4 -58 22 -54 15 2 23
11 25 29 6 49 -65 81 -123 55z"/>
<path d="M203 592 c15 -16 17 -45 17 -200 0 -110 -4 -183 -10 -187 -23 -14 -7
-25 35 -25 41 0 61 13 34 22 -7 2 -13 47 -16 111 l-6 107 47 0 46 0 0 -110 c0
-67 -4 -110 -10 -110 -5 0 -10 -4 -10 -10 0 -5 20 -10 45 -10 33 0 45 4 45 15
0 8 -4 15 -10 15 -6 0 -10 70 -10 190 0 120 4 190 10 190 6 0 10 5 10 10 0 6
-20 10 -45 10 -25 0 -45 -4 -45 -10 0 -5 5 -10 10 -10 6 0 10 -32 10 -76 l0
-75 -42 3 -43 3 -3 68 c-2 53 0 68 13 73 31 12 13 24 -37 24 -49 0 -50 -1 -35
-18z"/>
</g>
</svg>
